<?xml version="1.0" encoding="utf-8"?>
<!-- Generator: Adobe Illustrator 17.1.0, SVG Export Plug-In . SVG Version: 6.00 Build 0)  -->
<!DOCTYPE svg PUBLIC "-//W3C//DTD SVG 1.1//EN" "http://www.w3.org/Graphics/SVG/1.1/DTD/svg11.dtd">
<svg version="1.1" id="Calque_1" xmlns="http://www.w3.org/2000/svg" xmlns:xlink="http://www.w3.org/1999/xlink" x="0px" y="0px"
	 viewBox="0 0 237.4 230.1" enable-background="new 0 0 237.4 230.1" xml:space="preserve">
<path fill="#FFFFFF" d="M230.9,223.9H6.5V7.3h224.4V223.9z M13.4,217.1h210.7V14.2H13.4V217.1z"/>
<g>
	<g>
		<path fill="#FFFFFF" d="M31.7,82.3h8.9l6.1,17.4h0.1L53,82.3h8.8V109H56V88.6h-0.1l-7,20.4h-4.5l-6.7-20.4h-0.1V109h-5.9V82.3z"/>
		<path fill="#FFFFFF" d="M74.7,82.3h5.9V109h-5.9V82.3z"/>
		<path fill="#FFFFFF" d="M93.6,82.3h5.9v21.2h10.9v5.4H93.6V82.3z"/>
		<path fill="#FFFFFF" d="M121.3,82.3h5.9v21.2h10.9v5.4h-16.7V82.3z"/>
		<path fill="#FFFFFF" d="M149.1,82.3h18.1v5.4h-12.2v5h11.5v5.4h-11.5v5.4h12.9v5.4h-18.8V82.3z"/>
	</g>
	<g>
		<path fill="#FFFFFF" d="M43.4,121.6h2.6l11.2,26.6h-2.8l-2.9-7.1H37.3l-3,7.1h-2.6L43.4,121.6z M44.5,124.3l-6.2,14.6h12.2
			L44.5,124.3z"/>
		<path fill="#FFFFFF" d="M68.5,121.6h3.2l16.2,23.3H88v-23.3h2.5v26.6h-3.2L71,124.9H71v23.3h-2.5V121.6z"/>
		<path fill="#FFFFFF" d="M106,143.3c1.3,2.2,3.5,3.3,6.1,3.3c3.3,0,6-2,6-5.2c0-7.4-13.7-3.1-13.7-13.2c0-4.7,4.1-7.3,8.5-7.3
			c2.9,0,5.5,1,7.3,3.3l-2.1,1.5c-1.2-1.7-2.9-2.6-5.2-2.6c-3.2,0-6,1.7-6,5c0,8,13.7,3.2,13.7,13.2c0,4.8-3.9,7.5-8.3,7.5
			c-3.5,0-6.6-1.1-8.6-4L106,143.3z"/>
	</g>
</g>
</svg>
